<?xml version="1.0" encoding="UTF-8" standalone="no"?>
<svg
   xmlns:dc="http://purl.org/dc/elements/1.1/"
   xmlns:cc="http://creativecommons.org/ns#"
   xmlns:rdf="http://www.w3.org/1999/02/22-rdf-syntax-ns#"
   xmlns:svg="http://www.w3.org/2000/svg"
   xmlns="http://www.w3.org/2000/svg"
   xmlns:sodipodi="http://sodipodi.sourceforge.net/DTD/sodipodi-0.dtd"
   xmlns:inkscape="http://www.inkscape.org/namespaces/inkscape"
   sodipodi:docname="Dacia 2021 Logo.svg"
   inkscape:version="1.0 (4035a4fb49, 2020-05-01)"
   version="1.1"
   id="svg2"
   viewBox="0 0 1875 1024.0288"
   height="289.00369mm"
   width="529.16669mm">
  <defs
     id="defs4" />
  <sodipodi:namedview
     fit-margin-bottom="0"
     fit-margin-right="0"
     fit-margin-left="0"
     fit-margin-top="0"
     inkscape:document-rotation="0"
     inkscape:window-maximized="1"
     inkscape:window-y="-11"
     inkscape:window-x="-11"
     inkscape:window-height="986"
     inkscape:window-width="1920"
     showgrid="false"
     inkscape:current-layer="layer1"
     inkscape:document-units="px"
     inkscape:cy="352.89818"
     inkscape:cx="1793.0187"
     inkscape:zoom="0.23744612"
     inkscape:pageshadow="2"
     inkscape:pageopacity="0.0"
     borderopacity="1.0"
     bordercolor="#666666"
     pagecolor="#ffffff"
     id="base" />
  <metadata
     id="metadata7">
    <rdf:RDF>
      <cc:Work
         rdf:about="">
        <dc:format>image/svg+xml</dc:format>
        <dc:type
           rdf:resource="http://purl.org/dc/dcmitype/StillImage" />
        <dc:title></dc:title>
      </cc:Work>
    </rdf:RDF>
  </metadata>
  <g
     transform="translate(149.47448,-336.20361)"
     id="layer1"
     inkscape:groupmode="layer"
     inkscape:label="Calque 1">
    <path
       d="M -44.112186,336.20361 V 493.60812 H 538.42658 v 79.36126 79.36633 H -44.112186 V 809.74019 H 599.09011 c 14.75377,0 24.47924,-4.09286 34.53509,-14.20335 L 802.97096,630.81018 972.32169,795.53684 c 10.05588,10.11055 19.78135,14.20335 34.53511,14.20335 h 643.2023 V 652.33571 h -582.5438 v -79.36633 -79.36126 h 582.5438 V 336.20361 h -643.2023 c -14.75376,0 -24.47925,4.09288 -34.53511,14.20334 L 802.97096,515.13362 633.6252,350.40695 c -10.05583,-10.11046 -19.78132,-14.20334 -34.53509,-14.20334 z"
       style="opacity:1;fill:#241f21;fill-opacity:1;fill-rule:evenodd;stroke:none;stroke-width:6.08929px;stroke-linecap:butt;stroke-linejoin:miter;stroke-opacity:1"
       id="path4147-2" />
    <path
       d="m -149.47448,1163.225 v 65.0476 l 239.406968,1.5336 c 5.715064,0 8.879323,1.3116 12.514382,4.9467 l 25.45976,22.0016 c 1.86248,1.8625 2.71638,3.0524 2.71638,4.9717 0,1.9192 -0.85389,3.1142 -2.71638,4.9767 l -25.45976,22.0016 c -3.635059,3.635 -6.799315,4.9466 -12.514382,4.9466 l -239.406968,1.5336 v 65.0477 h 269.38234 c 9.61979,0 14.3627,-1.5727 20.53319,-7.7432 l 76.9757,-79.5667 c 2.89849,-2.8985 4.79625,-7.4255 4.79625,-11.1963 0,-3.7708 -1.89776,-8.2929 -4.79625,-11.1913 l -76.9757,-79.5718 c -6.1705,-6.1705 -10.9134,-7.7381 -20.53319,-7.7381 z"
       style="fill:#241f21;fill-opacity:1;fill-rule:evenodd;stroke:none;stroke-width:6.07829px;stroke-linecap:butt;stroke-linejoin:miter;stroke-opacity:1"
       id="path4168" />
    <path
       d="m 458.27212,1163.225 c -4.23647,0 -6.6376,0.849 -8.29948,2.5108 l -188.98362,189.7605 c -1.9849,1.9931 -1.08948,4.7361 1.99469,4.7361 h 91.8907 l 97.45877,-101.0973 c 2.02207,-2.0221 3.54126,-2.8668 5.93894,-2.8668 2.39769,0 3.91688,0.8447 5.93895,2.8668 l 97.45878,101.0973 h 91.89071 c 3.08419,0 3.9796,-2.743 1.99466,-4.7361 L 466.57161,1165.7358 c -1.66188,-1.6618 -4.06301,-2.5108 -8.29949,-2.5108 z"
       style="fill:#241f21;stroke:none;stroke-width:2.56602px;stroke-linecap:butt;stroke-linejoin:miter;stroke-opacity:1;fill-opacity:1"
       id="path133" />
    <path
       id="path4168-2"
       style="fill:#241f21;fill-opacity:1;fill-rule:evenodd;stroke:none;stroke-width:6.07829px;stroke-linecap:butt;stroke-linejoin:miter;stroke-opacity:1"
       d="m 1067.5958,1163.225 v 65.0476 l -239.40698,1.5337 c -5.71507,0 -8.87934,1.3115 -12.51439,4.9466 l -25.45974,22.0016 c -1.86251,1.8625 -2.7164,3.0524 -2.7164,4.9717 0,1.9192 0.85389,3.1142 2.7164,4.9767 l 25.45974,22.0016 c 3.63505,3.6351 6.79932,4.9466 12.51439,4.9466 l 239.40698,1.5336 v 65.0477 H 798.21343 c -9.61979,0 -14.3627,-1.5727 -20.5332,-7.7432 l -76.9757,-79.5667 c -2.89847,-2.8985 -4.79626,-7.4255 -4.79626,-11.1963 0,-3.7708 1.89779,-8.2928 4.79626,-11.1913 l 76.9757,-79.5718 c 6.1705,-6.1704 10.91341,-7.7381 20.5332,-7.7381 z" />
    <rect
       y="1163.225"
       x="1180.0607"
       height="197.00735"
       width="75.302574"
       id="rect166"
       style="fill:#241f21;stroke:none;stroke-width:20.7617;stroke-linecap:round;stroke-linejoin:round;stroke-dashoffset:131.528;paint-order:stroke fill markers;fill-opacity:1" />
    <path
       id="path133-9"
       style="fill:#241f21;stroke:none;stroke-width:2.56602px;stroke-linecap:butt;stroke-linejoin:miter;stroke-opacity:1;fill-opacity:1"
       d="m 1527.1863,1163.2249 c -4.2365,0 -6.6376,0.849 -8.2995,2.5109 l -188.9836,189.7604 c -1.985,1.9931 -1.0895,4.7362 1.9946,4.7362 h 91.8907 l 97.4588,-101.0973 c 2.0221,-2.0221 3.5413,-2.8668 5.939,-2.8668 2.3977,0 3.9168,0.8447 5.9389,2.8668 l 97.4588,101.0973 h 91.8907 c 3.0842,0 3.9796,-2.7431 1.9947,-4.7362 l -188.9837,-189.7604 c -1.6618,-1.6619 -4.063,-2.5109 -8.2994,-2.5109 z" />
  </g>
</svg>
